<svg width="24" height="24" viewBox="0 0 24 24" fill="none" xmlns="http://www.w3.org/2000/svg">
<path d="M8.3484 3.55503L5.73074 5.62748L5.73074 5.62748C4.5407 6.56967 3.94568 7.04076 3.57055 7.66561C3.44678 7.87177 3.34186 8.08868 3.25705 8.31369C3 8.99566 3 9.75459 3 11.2725V14.8C3 17.7998 3 19.2997 3.76393 20.3511C4.01065 20.6907 4.30928 20.9893 4.64886 21.2361C5.70032 22 7.20021 22 10.2 22H13.8C16.7998 22 18.2997 22 19.3511 21.2361C19.6907 20.9893 19.9894 20.6907 20.2361 20.3511C21 19.2997 21 17.7998 21 14.8V9.2C21 6.20021 21 4.70032 20.2361 3.64886C19.9894 3.30928 19.6907 3.01065 19.3511 2.76393C18.2997 2 16.7998 2 13.8 2H12.8177C11.7161 2 11.1653 2 10.6455 2.14265C10.4733 2.18994 10.3044 2.24871 10.1399 2.31857C9.64389 2.52935 9.21206 2.87124 8.3484 3.55502L8.3484 3.55503Z" fill="#C4C4C4" fill-opacity="0.4"/>
<path fill-rule="evenodd" clip-rule="evenodd" d="M3 8.29971L4.23529 8.29971C5.65433 8.29971 6.66591 8.29886 7.4506 8.21904C8.2236 8.1404 8.69842 7.99096 9.06868 7.74356C9.429 7.50279 9.73838 7.19342 9.97914 6.83309C10.2265 6.46283 10.376 5.98801 10.4546 5.21502C10.5344 4.43032 10.5353 3.41874 10.5353 1.99971L11.9353 1.99971L11.9353 2.03877C11.9353 3.41014 11.9353 4.4929 11.8474 5.3567C11.7575 6.24039 11.5699 6.97225 11.1432 7.61089C10.8003 8.12408 10.3597 8.56471 9.84647 8.90761C9.20784 9.33434 8.47598 9.52195 7.59229 9.61185C6.72848 9.69972 5.64571 9.69971 4.27433 9.69971L3 9.69971L3 8.29971Z" fill="#F0F4F8"/>
<path fill-rule="evenodd" clip-rule="evenodd" d="M12.718 1.29982C12.7508 1.29982 12.7839 1.29983 12.8175 1.29983L13.8416 1.29983C15.3061 1.29982 16.4623 1.29981 17.3814 1.39939C18.3224 1.50134 19.0975 1.71434 19.7624 2.19745C20.1614 2.48734 20.5123 2.83823 20.8022 3.23724C21.2853 3.90218 21.4983 4.6773 21.6003 5.61824C21.6999 6.53735 21.6999 7.69356 21.6998 9.15804V14.8416C21.6999 16.3061 21.6999 17.4623 21.6003 18.3814C21.4983 19.3224 21.2853 20.0975 20.8022 20.7624C20.5123 21.1614 20.1614 21.5123 19.7624 21.8022C19.0975 22.2853 18.3224 22.4983 17.3814 22.6003C16.4623 22.6998 15.3061 22.6998 13.8415 22.6998H10.1581C8.69362 22.6998 7.53739 22.6998 6.61826 22.6003C5.67732 22.4983 4.9022 22.2853 4.23726 21.8022C3.83825 21.5123 3.48736 21.1614 3.19747 20.7624C2.71435 20.0975 2.50136 19.3224 2.39941 18.3814C2.29983 17.4623 2.29984 16.3061 2.29985 14.8416L2.29985 11.2723C2.29985 11.2254 2.29984 11.1791 2.29983 11.1334C2.2995 9.74927 2.2993 8.8694 2.60188 8.06663C2.70153 7.80224 2.82482 7.54738 2.97024 7.30514C3.41182 6.5696 4.10179 6.0236 5.18717 5.16469C5.22304 5.1363 5.25934 5.10758 5.29608 5.07849L7.91373 3.00604C7.94005 2.9852 7.96605 2.96461 7.99174 2.94426C8.78064 2.31945 9.28215 1.92225 9.86603 1.67415C10.0592 1.59206 10.2577 1.523 10.4601 1.46744C11.0719 1.29953 11.7116 1.29964 12.718 1.29982ZM12.8175 2.69983C11.6785 2.69983 11.2384 2.70559 10.8307 2.81751C10.6885 2.85652 10.5492 2.90501 10.4135 2.96265C10.0244 3.12802 9.67575 3.39666 8.78275 4.10367L6.1651 6.17613C4.93343 7.15127 4.46464 7.53588 4.17055 8.02574C4.06844 8.19582 3.98188 8.37477 3.91191 8.5604C3.7104 9.09504 3.69985 9.70132 3.69985 11.2723V14.7998C3.69985 16.3153 3.70081 17.3957 3.79127 18.2306C3.8803 19.0524 4.04927 19.553 4.33009 19.9395C4.53363 20.2197 4.78 20.466 5.06016 20.6696C5.44667 20.9504 5.94723 21.1194 6.76905 21.2084C7.60398 21.2989 8.68436 21.2998 10.1998 21.2998H13.7998C15.3153 21.2998 16.3957 21.2989 17.2306 21.2084C18.0525 21.1194 18.553 20.9504 18.9395 20.6696C19.2197 20.466 19.4661 20.2197 19.6696 19.9395C19.9504 19.553 20.1194 19.0524 20.2084 18.2306C20.2989 17.3957 20.2998 16.3153 20.2998 14.7998V9.19983C20.2998 7.68434 20.2989 6.60396 20.2084 5.76903C20.1194 4.94721 19.9504 4.44665 19.6696 4.06014C19.4661 3.77998 19.2197 3.53361 18.9395 3.33007C18.553 3.04925 18.0525 2.88028 17.2306 2.79125C16.3957 2.70079 15.3153 2.69983 13.7998 2.69983H12.8175Z" fill="#F0F4F8"/>
<path fill-rule="evenodd" clip-rule="evenodd" d="M14.918 12.4384C15.228 12.6695 15.2919 13.1081 15.0608 13.418L14.9314 13.5911C14.8492 13.7009 14.7316 13.8577 14.5899 14.0458C14.3066 14.4218 13.9266 14.9238 13.5404 15.4262C13.1551 15.9275 12.7602 16.4338 12.4482 16.8167C12.2933 17.0069 12.1524 17.1746 12.0405 17.298C11.9861 17.3579 11.9276 17.4196 11.8718 17.4708C11.8454 17.495 11.8041 17.5312 11.7538 17.5657C11.7288 17.5828 11.6873 17.6094 11.6336 17.6338C11.5892 17.654 11.4798 17.6996 11.333 17.6996C11.1292 17.6996 10.9794 17.6135 10.9393 17.5905C10.8755 17.5538 10.8208 17.5124 10.7819 17.4809C10.7022 17.4163 10.6206 17.3375 10.5469 17.2623C10.3962 17.1085 10.2229 16.9122 10.0647 16.7267C9.90443 16.5389 9.7511 16.3523 9.63836 16.2133C9.58183 16.1436 9.53515 16.0854 9.50247 16.0445L9.4644 15.9967L9.45417 15.9838L9.45066 15.9794C9.21103 15.676 9.26235 15.2354 9.56572 14.9958C9.86909 14.7561 10.3093 14.8078 10.5489 15.1111C10.5489 15.1111 10.5489 15.1111 10.5489 15.1111L10.5517 15.1146L10.5607 15.1261L10.5962 15.1706C10.6271 15.2093 10.6716 15.2647 10.7257 15.3314C10.8342 15.4651 10.9796 15.6421 11.1296 15.818C11.1867 15.8848 11.2432 15.9501 11.2978 16.012C11.3188 15.9864 11.3405 15.9599 11.3628 15.9325C11.6619 15.5654 12.0471 15.0717 12.4304 14.573C12.8129 14.0755 13.1899 13.5774 13.4716 13.2034C13.6124 13.0165 13.7292 12.8608 13.8108 12.7519L13.9379 12.5819C14.169 12.2719 14.6081 12.2073 14.918 12.4384Z" fill="#F0F4F8"/>
</svg>
