<svg width="24" height="24" viewBox="0 0 24 24" fill="none" xmlns="http://www.w3.org/2000/svg">
<path d="M2 11.5C2 11.0357 2 10.8036 2.00857 10.6074C2.21212 5.94532 5.94532 2.21212 10.6074 2.00857C10.8036 2 11.0357 2 11.5 2C11.9643 2 12.1964 2 12.3926 2.00857C17.0547 2.21212 20.7879 5.94532 20.9914 10.6074C21 10.8036 21 11.0357 21 11.5C21 11.9643 21 12.1964 20.9914 12.3926C20.7879 17.0547 17.0547 20.7879 12.3926 20.9914C12.1964 21 11.9643 21 11.5 21C11.0357 21 10.8036 21 10.6074 20.9914C5.94532 20.7879 2.21212 17.0547 2.00857 12.3926C2 12.1964 2 11.9643 2 11.5Z" fill="#C4C4C4" fill-opacity="0.4"/>
<path fill-rule="evenodd" clip-rule="evenodd" d="M11.4762 1.2998H11.5234C11.9654 1.2998 12.2114 1.2998 12.4229 1.30904C17.4476 1.52842 21.4712 5.55199 21.6906 10.5767C21.6998 10.7883 21.6998 11.0342 21.6998 11.4762V11.5234C21.6998 11.9654 21.6998 12.2114 21.6906 12.4229C21.4712 17.4476 17.4476 21.4712 12.4229 21.6906C12.2114 21.6998 11.9654 21.6998 11.5234 21.6998H11.4762C11.0342 21.6998 10.7883 21.6998 10.5767 21.6906C5.55199 21.4712 1.52842 17.4476 1.30904 12.4229C1.2998 12.2114 1.2998 11.9654 1.2998 11.5234V11.4762C1.2998 11.0342 1.2998 10.7883 1.30904 10.5767C1.52842 5.55199 5.55199 1.52842 10.5767 1.30904C10.7883 1.2998 11.0342 1.2998 11.4762 1.2998ZM11.4998 2.6998C11.0282 2.6998 10.8149 2.69997 10.6378 2.7077C6.33827 2.89542 2.89542 6.33827 2.7077 10.6378C2.69997 10.8149 2.6998 11.0282 2.6998 11.4998C2.6998 11.9714 2.69997 12.1848 2.7077 12.3618C2.89542 16.6613 6.33827 20.1042 10.6378 20.2919C10.8149 20.2996 11.0282 20.2998 11.4998 20.2998C11.9714 20.2998 12.1848 20.2996 12.3618 20.2919C16.6613 20.1042 20.1042 16.6613 20.2919 12.3618C20.2996 12.1848 20.2998 11.9714 20.2998 11.4998C20.2998 11.0282 20.2996 10.8149 20.2919 10.6378C20.1042 6.33827 16.6613 2.89542 12.3618 2.7077C12.1848 2.69997 11.9714 2.6998 11.4998 2.6998Z" fill="#F0F4F8"/>
<path fill-rule="evenodd" clip-rule="evenodd" d="M17.4953 18.5047C17.7686 18.2314 18.2118 18.2314 18.4852 18.5047L21.0308 21.0503C21.3042 21.3237 21.3042 21.7669 21.0308 22.0403C20.7574 22.3136 20.3142 22.3136 20.0408 22.0403L17.4953 19.4947C17.2219 19.2213 17.2219 18.7781 17.4953 18.5047Z" fill="#F0F4F8"/>
</svg>
