<svg width="32" height="32" viewBox="0 0 32 32" fill="none" xmlns="http://www.w3.org/2000/svg">
<path fill-rule="evenodd" clip-rule="evenodd" d="M4.54536 8.57612C4.47375 8.64777 4.41695 8.73284 4.37821 8.82644C4.33947 8.92005 4.31955 9.02038 4.31958 9.12168C4.31961 9.22299 4.33959 9.3233 4.37839 9.41689C4.41719 9.51047 4.47404 9.5955 4.5457 9.66712C4.61735 9.73873 4.70242 9.79553 4.79603 9.83427C4.88963 9.87301 4.98996 9.89293 5.09127 9.8929C5.19257 9.89287 5.29288 9.87289 5.38647 9.83409C5.48006 9.79529 5.56508 9.73844 5.6367 9.66678L6.18203 9.12078L8.9087 11.8474L6.72736 14.0301C6.58684 14.1756 6.50908 14.3704 6.51083 14.5727C6.51258 14.7749 6.5937 14.9684 6.73672 15.1114C6.87974 15.2544 7.07321 15.3356 7.27546 15.3373C7.47771 15.3391 7.67256 15.2613 7.81803 15.1208L8.9087 14.0301L10.8787 16.0001H5.5827C5.1627 16.0001 4.7607 16.1688 4.46336 16.4688C4.16606 16.7702 3.99958 17.1767 4.00003 17.6001V19.9988C3.99504 21.8589 4.62009 23.666 5.77336 25.1255C6.9196 26.5773 8.52918 27.592 10.3334 28.0001C12.1374 27.5923 13.7469 26.5781 14.8934 25.1268C15.7011 24.1054 16.2545 22.9067 16.508 21.6294L18.1814 23.3028C18.7121 23.8338 19.3862 24.1985 20.1211 24.3521C20.856 24.5057 21.6197 24.4415 22.3187 24.1674L23.0907 24.9401C23.2822 25.1318 23.5208 25.2696 23.7825 25.3397C24.0442 25.4098 24.3197 25.4097 24.5814 25.3394L26.3634 27.1214C26.435 27.1931 26.5201 27.2499 26.6137 27.2887C26.7073 27.3275 26.8077 27.3475 26.909 27.3475C27.0104 27.3475 27.1107 27.3275 27.2043 27.2887C27.298 27.2499 27.383 27.1931 27.4547 27.1214C27.5264 27.0498 27.5832 26.9647 27.622 26.8711C27.6608 26.7775 27.6807 26.6771 27.6807 26.5758C27.6807 26.4744 27.6608 26.3741 27.622 26.2805C27.5832 26.1868 27.5264 26.1018 27.4547 26.0301L25.672 24.2481C25.7421 23.9865 25.742 23.7111 25.6718 23.4495C25.6015 23.1879 25.4637 22.9495 25.272 22.7581L24.5 21.9855C24.7366 21.3819 24.8173 20.7284 24.7347 20.0854C24.6275 19.2386 24.2411 18.4516 23.6367 17.8488L14.3634 8.57545L15.4547 7.48412C15.5993 7.3394 15.6805 7.14315 15.6805 6.93855C15.6804 6.73394 15.5991 6.53775 15.4544 6.39312C15.3827 6.3215 15.2976 6.2647 15.204 6.22596C15.1104 6.18722 15.0101 6.1673 14.9088 6.16733C14.7042 6.16739 14.508 6.24873 14.3634 6.39345L12.182 8.57545L9.45536 5.84878L10 5.30345C10.1447 5.15882 10.2261 4.96262 10.2261 4.75802C10.2262 4.55342 10.145 4.35717 10.0004 4.21245C9.85573 4.06773 9.65953 3.98639 9.45493 3.98633C9.25033 3.98627 9.05408 4.06748 8.90936 4.21212L4.54536 8.57612ZM17.698 20.9334L21.2667 17.3648L13.42 9.51812L9.85136 13.0874L12.7647 16.0001H15.084C15.504 16.0001 15.906 16.1688 16.2027 16.4688C16.5 16.7688 16.6667 17.1754 16.6667 17.6001V19.9028L17.698 20.9334ZM11.2387 9.51812L8.51203 6.79145L7.12536 8.17812L9.85203 10.9048L11.2387 9.51812ZM23.7807 23.1515C23.6871 23.2553 23.5881 23.3541 23.484 23.4475L24.0334 23.9968C24.0528 24.0163 24.0759 24.0317 24.1013 24.0423C24.1267 24.0528 24.1539 24.0583 24.1815 24.0583C24.209 24.0584 24.2362 24.053 24.2617 24.0425C24.2871 24.032 24.3102 24.0166 24.3297 23.9971C24.3492 23.9777 24.3646 23.9546 24.3752 23.9292C24.3858 23.9038 24.3912 23.8765 24.3912 23.849C24.3913 23.8215 24.3859 23.7942 24.3754 23.7688C24.3649 23.7434 24.3495 23.7203 24.33 23.7008L23.7807 23.1515ZM22.3574 18.4555L22.6934 18.7914C22.9548 19.0516 23.1557 19.3662 23.2818 19.7128C23.408 20.0593 23.4563 20.4294 23.4234 20.7968C23.4024 21.0377 23.3469 21.2743 23.2587 21.4995L21.832 22.9254C21.3748 23.105 20.875 23.1472 20.3941 23.0469C19.9132 22.9466 19.4721 22.7082 19.1247 22.3608L18.7887 22.0248L22.3574 18.4555ZM11.3334 19.3334C11.3334 19.1566 11.2631 18.9871 11.1381 18.862C11.0131 18.737 10.8435 18.6668 10.6667 18.6668C10.4899 18.6668 10.3203 18.737 10.1953 18.862C10.0703 18.9871 10 19.1566 10 19.3334V20.6668H8.6667C8.48988 20.6668 8.32032 20.737 8.19529 20.862C8.07027 20.9871 8.00003 21.1566 8.00003 21.3335C8.00003 21.5103 8.07027 21.6798 8.19529 21.8049C8.32032 21.9299 8.48988 22.0001 8.6667 22.0001H10V23.3335C10 23.5103 10.0703 23.6798 10.1953 23.8049C10.3203 23.9299 10.4899 24.0001 10.6667 24.0001C10.8435 24.0001 11.0131 23.9299 11.1381 23.8049C11.2631 23.6798 11.3334 23.5103 11.3334 23.3335V22.0001H12.6667C12.8435 22.0001 13.0131 21.9299 13.1381 21.8049C13.2631 21.6798 13.3334 21.5103 13.3334 21.3335C13.3334 21.1566 13.2631 20.9871 13.1381 20.862C13.0131 20.737 12.8435 20.6668 12.6667 20.6668H11.3334V19.3334Z" fill="#635BFF"/>
</svg>
